<svg width="100" height="24" viewBox="0 0 100 24" fill="none" xmlns="http://www.w3.org/2000/svg">
<g clip-path="url(#clip0)">
<path d="M95.5329 0.4702C93.2602 0.313467 89.1066 0 87.3824 0C85.0313 0 82.9153 0.548567 81.2696 1.48897C81.1912 1.56733 81.1128 1.56733 81.0345 1.6457C79.4671 2.66447 78.2132 3.9967 77.3511 5.72077C77.0376 6.26933 76.8025 6.89627 76.5674 7.44483C76.1755 8.77707 75.9404 10.1877 75.9404 11.755C75.9404 13.9493 76.4106 15.9868 77.2727 17.7109C77.2727 17.7892 77.3511 17.7892 77.3511 17.8676C78.2132 19.5917 79.4671 20.9239 81.1128 21.9427C82.6802 22.8831 84.6395 23.4316 86.8338 23.51C88.7147 23.4316 91.3009 23.1965 92.8683 22.5696C94.279 22.021 94.9843 22.9614 94.9843 22.9614L95.0627 23.1182H99.9216L99.8433 0.548567C99.9216 0.626933 96.0815 0.548567 95.5329 0.4702ZM88.2445 19.7484C86.5987 19.7484 85.2664 19.4349 84.2476 18.7296C83.6991 18.4162 83.2288 17.946 82.837 17.4758C82.5235 17.0839 82.2884 16.7705 82.0533 16.3786L81.9749 16.3003C81.2696 15.0464 80.9561 13.4791 80.9561 11.755C80.9561 10.5795 81.1128 9.48237 81.4263 8.54197C81.7398 7.60157 82.21 6.8179 82.7586 6.03423C83.9342 4.54527 85.815 3.7616 88.1661 3.7616C90.5172 3.7616 92.3197 4.54527 93.4953 6.03423C93.8088 6.42607 94.1223 6.89627 94.3574 7.2881C95.0627 8.54197 95.3762 10.0309 95.3762 11.755C95.3762 14.0276 94.7492 15.9084 93.4953 17.4758C92.3981 18.9647 90.5956 19.7484 88.2445 19.7484Z" fill="#05358D"/>
<path d="M19.5925 0.4702C17.2414 0.313467 13.1661 0 11.442 0C9.09091 0 6.97492 0.548567 5.32915 1.48897C5.17241 1.56733 5.09404 1.6457 5.01567 1.6457C3.44828 2.66447 2.19436 3.9967 1.33229 5.72077C1.09718 6.26933 0.862069 6.89627 0.626959 7.44483C0.23511 8.77707 0 10.266 0 11.755C0 13.9493 0.470219 15.9868 1.33229 17.7109C1.33229 17.7892 1.41066 17.7892 1.41066 17.8676C2.27273 19.5917 3.52665 20.9239 5.17241 21.9427C6.73981 22.8831 8.69906 23.4316 10.8934 23.51C12.7743 23.4316 15.3605 23.1965 16.9279 22.5696C18.3386 22.021 19.0439 22.9614 19.0439 22.9614L19.1223 23.1182H23.9812V0.626933C23.9812 0.626933 20.1411 0.548567 19.5925 0.4702ZM12.3041 19.7484C10.6583 19.7484 9.32602 19.4349 8.30721 18.7296C7.75862 18.4162 7.2884 17.946 6.89655 17.4758C6.58307 17.0839 6.34796 16.7705 6.11285 16.3786L6.03448 16.3003C5.32915 15.0464 5.01567 13.4791 5.01567 11.755C5.01567 10.5795 5.17241 9.48237 5.48589 8.54197C5.79937 7.60157 6.26959 6.8179 6.81818 6.03423C7.99373 4.54527 9.87461 3.7616 12.2257 3.7616C14.5768 3.7616 16.3793 4.54527 17.5549 6.03423C17.8683 6.42607 18.1818 6.89627 18.4169 7.2881C19.2006 8.62033 19.5925 10.1093 19.5925 11.755C19.5925 14.0276 18.9655 15.9084 17.7116 17.4758C16.4577 18.9647 14.6552 19.7484 12.3041 19.7484Z" fill="#05358D"/>
<path d="M53.1348 0.626946V23.1965H48.3542L48.2758 23.1182C48.2758 23.1182 46.8652 22.2561 45.5329 22.7263C43.9655 23.2749 41.8495 23.5884 39.7335 23.5884C37.4608 23.5884 35.5799 23.1182 34.0909 22.1778C32.6018 21.2374 31.5047 20.0619 30.7993 18.5729C30.094 17.0839 29.7805 15.5166 29.7805 13.7925V0.626946C31.583 0.548579 33.2288 0.391846 34.7178 0.391846V13.3223C34.7178 15.3599 35.3448 16.9272 36.5203 18.0243C37.6959 19.1215 39.3416 19.67 41.3009 19.67C43.3385 19.67 45.0627 19.0431 46.2382 17.946C47.4921 16.7705 48.1191 15.2815 48.1191 13.4007V0.862046C49.6865 0.705312 51.3322 0.626946 53.1348 0.626946Z" fill="#05358D"/>
<path d="M74.5297 1.88076L72.6488 5.72073C72.6488 5.72073 72.3353 5.64236 71.3949 5.3289C70.6896 5.0938 70.2193 5.01543 69.6708 5.01543C65.8306 5.01543 64.4983 8.1501 64.1065 10.8929C63.7146 14.0276 64.0281 23.5883 64.0281 23.5883H59.2476V0.861998H62.0689L62.1472 1.01873C62.4607 1.48893 62.6175 1.8024 63.0093 1.95913C64.1065 2.5077 65.5171 2.0375 67.1629 1.5673C68.4168 1.25383 69.3573 0.940364 70.0626 0.861998C70.7679 0.783631 71.3165 0.783631 71.7867 0.861998C72.3353 0.940364 72.7272 0.940364 73.4325 1.25383C74.2162 1.5673 74.5297 1.88076 74.5297 1.88076Z" fill="#05358D"/>
</g>
<defs>
<clipPath id="clip0">
<rect width="100" height="23.51" fill="white"/>
</clipPath>
</defs>
</svg>
